<mxfile host="www.draw.io" modified="2019-12-24T08:43:40.824Z" agent="Mozilla/5.0 (Macintosh; Intel Mac OS X 10_14_6) AppleWebKit/537.36 (KHTML, like Gecko) Chrome/79.0.3945.88 Safari/537.36" etag="6OEYEqLVizP0C9JenI9X" version="12.4.3" type="github" pages="1">
  <diagram id="ejn02Nyg8z3VodYaMBHZ" name="Page-1">
    <mxGraphModel dx="815" dy="521" grid="1" gridSize="10" guides="1" tooltips="1" connect="1" arrows="1" fold="1" page="1" pageScale="1" pageWidth="827" pageHeight="1169" math="0" shadow="0">
      <root>
        <mxCell id="0"/>
        <mxCell id="1" parent="0"/>
        <mxCell id="wE8Eu3liV5XuDYsRO21W-1" value="Data Node" style="rounded=1;whiteSpace=wrap;html=1;" vertex="1" parent="1">
          <mxGeometry x="40" y="180" width="80" height="40" as="geometry"/>
        </mxCell>
        <mxCell id="wE8Eu3liV5XuDYsRO21W-2" value="Data Node" style="rounded=1;whiteSpace=wrap;html=1;" vertex="1" parent="1">
          <mxGeometry x="160" y="180" width="80" height="40" as="geometry"/>
        </mxCell>
        <mxCell id="wE8Eu3liV5XuDYsRO21W-3" value="Data Node" style="rounded=1;whiteSpace=wrap;html=1;" vertex="1" parent="1">
          <mxGeometry x="280" y="180" width="80" height="40" as="geometry"/>
        </mxCell>
        <mxCell id="wE8Eu3liV5XuDYsRO21W-4" value="" style="shape=curlyBracket;whiteSpace=wrap;html=1;rounded=1;rotation=90;" vertex="1" parent="1">
          <mxGeometry x="190" width="20" height="320" as="geometry"/>
        </mxCell>
        <mxCell id="wE8Eu3liV5XuDYsRO21W-5" value="&lt;font style=&quot;font-size: 14px&quot;&gt;Replicated Data Partition&lt;/font&gt;" style="text;html=1;strokeColor=none;fillColor=none;align=center;verticalAlign=middle;whiteSpace=wrap;rounded=0;" vertex="1" parent="1">
          <mxGeometry x="117.5" y="120" width="165" height="20" as="geometry"/>
        </mxCell>
        <mxCell id="wE8Eu3liV5XuDYsRO21W-6" value="Data Node" style="rounded=1;whiteSpace=wrap;html=1;" vertex="1" parent="1">
          <mxGeometry x="40" y="340" width="80" height="40" as="geometry"/>
        </mxCell>
        <mxCell id="wE8Eu3liV5XuDYsRO21W-7" value="Data Node" style="rounded=1;whiteSpace=wrap;html=1;" vertex="1" parent="1">
          <mxGeometry x="200" y="340" width="80" height="40" as="geometry"/>
        </mxCell>
        <mxCell id="wE8Eu3liV5XuDYsRO21W-8" value="&lt;font style=&quot;font-size: 20px&quot;&gt;......&lt;/font&gt;" style="text;html=1;strokeColor=none;fillColor=none;align=center;verticalAlign=middle;whiteSpace=wrap;rounded=0;" vertex="1" parent="1">
          <mxGeometry x="140" y="350" width="40" height="20" as="geometry"/>
        </mxCell>
        <mxCell id="wE8Eu3liV5XuDYsRO21W-9" value="" style="shape=crossbar;whiteSpace=wrap;html=1;rounded=1;" vertex="1" parent="1">
          <mxGeometry x="40" y="390" width="240" height="20" as="geometry"/>
        </mxCell>
        <mxCell id="wE8Eu3liV5XuDYsRO21W-10" value="Data Node" style="rounded=1;whiteSpace=wrap;html=1;" vertex="1" parent="1">
          <mxGeometry x="320" y="340" width="80" height="40" as="geometry"/>
        </mxCell>
        <mxCell id="wE8Eu3liV5XuDYsRO21W-11" value="Data Node" style="rounded=1;whiteSpace=wrap;html=1;" vertex="1" parent="1">
          <mxGeometry x="480" y="340" width="80" height="40" as="geometry"/>
        </mxCell>
        <mxCell id="wE8Eu3liV5XuDYsRO21W-12" value="&lt;font style=&quot;font-size: 20px&quot;&gt;......&lt;/font&gt;" style="text;html=1;strokeColor=none;fillColor=none;align=center;verticalAlign=middle;whiteSpace=wrap;rounded=0;" vertex="1" parent="1">
          <mxGeometry x="420" y="350" width="40" height="20" as="geometry"/>
        </mxCell>
        <mxCell id="wE8Eu3liV5XuDYsRO21W-13" value="" style="shape=crossbar;whiteSpace=wrap;html=1;rounded=1;" vertex="1" parent="1">
          <mxGeometry x="320" y="390" width="240" height="20" as="geometry"/>
        </mxCell>
        <mxCell id="wE8Eu3liV5XuDYsRO21W-14" value="n data blocks" style="text;html=1;strokeColor=none;fillColor=none;align=center;verticalAlign=middle;whiteSpace=wrap;rounded=0;" vertex="1" parent="1">
          <mxGeometry x="110" y="410" width="100" height="20" as="geometry"/>
        </mxCell>
        <mxCell id="wE8Eu3liV5XuDYsRO21W-15" value="k parity blocks" style="text;html=1;strokeColor=none;fillColor=none;align=center;verticalAlign=middle;whiteSpace=wrap;rounded=0;" vertex="1" parent="1">
          <mxGeometry x="390" y="410" width="100" height="20" as="geometry"/>
        </mxCell>
        <mxCell id="wE8Eu3liV5XuDYsRO21W-16" value="" style="shape=curlyBracket;whiteSpace=wrap;html=1;rounded=1;rotation=90;" vertex="1" parent="1">
          <mxGeometry x="290" y="60" width="20" height="520" as="geometry"/>
        </mxCell>
        <mxCell id="wE8Eu3liV5XuDYsRO21W-17" value="&lt;font style=&quot;font-size: 14px&quot;&gt;EC Data Patition&lt;/font&gt;" style="text;html=1;strokeColor=none;fillColor=none;align=center;verticalAlign=middle;whiteSpace=wrap;rounded=0;" vertex="1" parent="1">
          <mxGeometry x="240" y="280" width="120" height="20" as="geometry"/>
        </mxCell>
      </root>
    </mxGraphModel>
  </diagram>
</mxfile>
